<svg width="374" height="103" viewBox="0 0 374 103" fill="none" xmlns="http://www.w3.org/2000/svg">
<path d="M182.808 58.381C195.685 58.381 204.533 50.876 207.535 40.369C203.81 38.9989 199.812 41.1976 197.421 44.3652C194.261 48.5512 189.373 51.271 182.808 51.271C172.617 51.271 162.9 43.766 162.9 29.151C162.9 14.536 172.617 7.11 182.808 7.11C191.972 7.11 198.134 11.85 200.267 20.303C204.328 18.8748 206.759 14.4372 204.448 10.8054C200.154 4.06017 192.588 0 182.808 0C168.904 0 155 10.428 155 29.151C155 47.874 168.351 58.381 182.808 58.381Z" fill="black"/>
<path d="M223.67 57.196V7.42599C223.67 3.32473 220.345 0 216.244 0V49.77C216.244 53.8713 219.568 57.196 223.67 57.196Z" fill="black"/>
<path d="M252.576 51.745C246.256 51.745 240.726 47.005 240.726 38.157C240.726 29.388 246.256 24.648 252.576 24.648C258.896 24.648 264.426 29.388 264.426 38.157C264.426 47.005 258.896 51.745 252.576 51.745ZM252.576 18.012C241.2 18.012 233.142 26.623 233.142 38.157C233.142 49.77 241.2 58.381 252.576 58.381C263.952 58.381 272.01 49.77 272.01 38.157C272.01 26.623 263.952 18.012 252.576 18.012Z" fill="black"/>
<path d="M277.956 47.321C278.588 51.666 283.012 58.381 293.44 58.381C302.841 58.381 307.344 51.982 307.344 46.61C307.344 41.001 303.71 36.814 296.837 35.313L290.675 33.97C287.752 33.338 286.33 31.679 286.33 29.388C286.33 26.781 288.858 24.332 292.65 24.332C294.289 24.332 295.599 24.6559 296.643 25.1671C299.894 26.7586 303.717 29.4693 307.107 28.203C306.317 24.806 303.078 18.012 292.65 18.012C285.224 18.012 279.141 23.542 279.141 30.02C279.141 35.392 282.696 39.421 288.621 40.685L295.099 42.107C298.259 42.818 299.997 44.635 299.997 47.005C299.997 49.691 297.706 52.061 293.519 52.061C291.428 52.061 289.695 51.582 288.332 50.7638C285.199 48.8846 281.401 46.1053 277.956 47.321Z" fill="black"/>
<path d="M321.664 34.286C321.98 29.388 325.772 24.569 332.013 24.569C338.728 24.569 342.283 28.835 342.441 34.286H321.664ZM349.946 46.373C346.514 45.1866 342.922 47.6027 340.009 49.7708C338.261 51.072 335.903 51.824 332.882 51.824C326.483 51.824 321.585 47.084 321.427 40.29H347.648C349.02 40.29 350.183 39.2919 350.183 37.92C350.183 26.07 343.626 18.012 331.934 18.012C322.375 18.012 313.764 26.149 313.764 38.078C313.764 50.955 322.691 58.381 332.882 58.381C341.73 58.381 347.813 53.088 349.946 46.373Z" fill="black"/>
<path d="M162.438 69.053H160.305V72.698L157.011 71.537L156.39 73.481L159.738 74.588L157.605 77.396L159.252 78.638L161.358 75.722L163.599 78.665L165.246 77.423L163.032 74.588L166.38 73.481L165.759 71.537L162.438 72.671V69.053ZM172.008 88.196V86.306C172.818 87.71 174.303 88.547 176.22 88.547C180.081 88.547 182.268 85.496 182.268 81.635C182.268 77.855 180.243 74.831 176.301 74.831C174.141 74.831 172.629 75.884 172.008 77.045V68.648H169.497V88.196H172.008ZM179.676 81.635C179.676 84.443 178.164 86.279 175.842 86.279C173.601 86.279 171.981 84.443 171.981 81.635C171.981 78.827 173.601 77.072 175.842 77.072C178.191 77.072 179.676 78.827 179.676 81.635ZM193.929 86.63C193.929 87.17 193.983 87.899 194.037 88.196H196.467C196.413 87.737 196.332 86.819 196.332 85.793V75.209H193.794V83.039C193.794 85.01 192.768 86.36 190.716 86.36C188.583 86.36 187.773 84.794 187.773 83.012V75.209H185.235V83.39C185.235 86.333 187.071 88.601 190.095 88.601C191.607 88.601 193.227 87.98 193.929 86.63ZM204.065 71.105H201.743V73.211C201.743 74.345 201.149 75.209 199.745 75.209H199.043V77.504H201.527V84.632C201.527 86.981 202.931 88.331 205.145 88.331C206.009 88.331 206.657 88.169 206.873 88.088V85.928C206.657 85.982 206.198 86.036 205.874 86.036C204.551 86.036 204.065 85.442 204.065 84.254V77.504H206.873V75.209H204.065V71.105ZM219.549 80.69C219.549 78.719 220.575 77.126 222.573 77.126C224.841 77.126 225.597 78.584 225.597 80.393V88.196H228.135V79.961C228.135 77.072 226.596 74.831 223.491 74.831C221.979 74.831 220.44 75.452 219.495 77.072V75.209H217.011V88.196H219.549V80.69ZM237.734 86.333C235.574 86.333 233.684 84.713 233.684 81.689C233.684 78.692 235.574 77.072 237.734 77.072C239.894 77.072 241.784 78.692 241.784 81.689C241.784 84.713 239.894 86.333 237.734 86.333ZM237.734 74.804C233.846 74.804 231.092 77.747 231.092 81.689C231.092 85.658 233.846 88.601 237.734 88.601C241.622 88.601 244.376 85.658 244.376 81.689C244.376 77.747 241.622 74.804 237.734 74.804ZM250.893 71.105H248.571V73.211C248.571 74.345 247.977 75.209 246.573 75.209H245.871V77.504H248.355V84.632C248.355 86.981 249.759 88.331 251.973 88.331C252.837 88.331 253.485 88.169 253.701 88.088V85.928C253.485 85.982 253.026 86.036 252.702 86.036C251.379 86.036 250.893 85.442 250.893 84.254V77.504H253.701V75.209H250.893V71.105ZM267.241 71.105H264.919V73.211C264.919 74.345 264.325 75.209 262.921 75.209H262.219V77.504H264.703V84.632C264.703 86.981 266.107 88.331 268.321 88.331C269.185 88.331 269.833 88.169 270.049 88.088V85.928C269.833 85.982 269.374 86.036 269.05 86.036C267.727 86.036 267.241 85.442 267.241 84.254V77.504H270.049V75.209H267.241V71.105ZM278.867 86.333C276.707 86.333 274.817 84.713 274.817 81.689C274.817 78.692 276.707 77.072 278.867 77.072C281.027 77.072 282.917 78.692 282.917 81.689C282.917 84.713 281.027 86.333 278.867 86.333ZM278.867 74.804C274.979 74.804 272.225 77.747 272.225 81.689C272.225 85.658 274.979 88.601 278.867 88.601C282.755 88.601 285.509 85.658 285.509 81.689C285.509 77.747 282.755 74.804 278.867 74.804ZM294.318 86.333C292.158 86.333 290.268 84.713 290.268 81.689C290.268 78.692 292.158 77.072 294.318 77.072C296.478 77.072 298.368 78.692 298.368 81.689C298.368 84.713 296.478 86.333 294.318 86.333ZM294.318 74.804C290.43 74.804 287.676 77.747 287.676 81.689C287.676 85.658 290.43 88.601 294.318 88.601C298.206 88.601 300.96 85.658 300.96 81.689C300.96 77.747 298.206 74.804 294.318 74.804ZM316.411 77.153C318.625 77.153 319.57 78.638 319.894 79.907L322.189 78.935C321.649 76.964 319.867 74.804 316.411 74.804C312.712 74.804 309.877 77.639 309.877 81.689C309.877 85.631 312.658 88.601 316.438 88.601C319.813 88.601 321.676 86.414 322.297 84.551L320.056 83.579C319.759 84.605 318.868 86.252 316.438 86.252C314.332 86.252 312.469 84.659 312.469 81.689C312.469 78.665 314.359 77.153 316.411 77.153ZM327.812 88.196V68.648H325.274V88.196H327.812ZM337.692 86.333C335.532 86.333 333.642 84.713 333.642 81.689C333.642 78.692 335.532 77.072 337.692 77.072C339.852 77.072 341.742 78.692 341.742 81.689C341.742 84.713 339.852 86.333 337.692 86.333ZM337.692 74.804C333.804 74.804 331.05 77.747 331.05 81.689C331.05 85.658 333.804 88.601 337.692 88.601C341.58 88.601 344.334 85.658 344.334 81.689C344.334 77.747 341.58 74.804 337.692 74.804ZM346.366 84.821C346.582 86.306 348.094 88.601 351.658 88.601C354.871 88.601 356.41 86.414 356.41 84.578C356.41 82.661 355.168 81.23 352.819 80.717L350.713 80.258C349.714 80.042 349.228 79.475 349.228 78.692C349.228 77.801 350.092 76.964 351.388 76.964C353.44 76.964 353.98 78.449 354.088 79.124L356.329 78.287C356.059 77.126 354.952 74.804 351.388 74.804C348.85 74.804 346.771 76.694 346.771 78.908C346.771 80.744 347.986 82.121 350.011 82.553L352.225 83.039C353.305 83.282 353.899 83.903 353.899 84.713C353.899 85.631 353.116 86.441 351.685 86.441C349.849 86.441 348.823 85.361 348.661 84.011L346.366 84.821ZM361.304 80.366C361.412 78.692 362.708 77.045 364.841 77.045C367.136 77.045 368.351 78.503 368.405 80.366H361.304ZM368.783 83.741C368.297 85.199 367.244 86.36 365.138 86.36C362.951 86.36 361.277 84.74 361.223 82.418H370.997C371.024 82.256 371.051 81.932 371.051 81.608C371.051 77.558 368.81 74.804 364.814 74.804C361.547 74.804 358.604 77.585 358.604 81.662C358.604 86.063 361.655 88.601 365.138 88.601C368.162 88.601 370.241 86.792 370.97 84.497L368.783 83.741Z" fill="black"/>
<path d="M103 60.3232V31.1717L135 8V82L103 60.3232Z" fill="black"/>
<path fill-rule="evenodd" clip-rule="evenodd" d="M136 7V84L102 61.2755V31.2917L136 7ZM103.511 32.0583V60.4792L134.489 81.1837V9.92578L103.511 32.0583Z" fill="black"/>
<path fill-rule="evenodd" clip-rule="evenodd" d="M29.8507 11C13.3646 11 0 24.4315 0 41V86H70.1493C86.6354 86 100 72.5685 100 56V11H29.8507ZM51 42.5776C51 37.8402 46.9725 34 42 34C37.0275 34 33 37.8402 33 42.5776C33 47.1036 35.9239 49.7727 40.5715 54.0152C43.2557 56.4655 46.515 59.4407 50.118 63.6016C50.2263 63.7264 50.3614 63.8267 50.5137 63.8955C50.6661 63.9643 50.832 64 51 64C51.168 64 51.3339 63.9643 51.4863 63.8955C51.6386 63.8267 51.7737 63.7264 51.882 63.6016C55.485 59.4407 58.7443 56.4655 61.4285 54.0152C66.0761 49.7727 69 47.1036 69 42.5776C69 37.8402 64.9725 34 60 34C55.0275 34 51 37.8402 51 42.5776Z" fill="black"/>
</svg>
