<svg width="46" height="47" viewBox="0 0 46 47" fill="none" xmlns="http://www.w3.org/2000/svg">
<path d="M41.0714 0H4.92857C2.20759 0 0 2.25558 0 5.03571V41.9643C0 44.7444 2.20759 47 4.92857 47H41.0714C43.7924 47 46 44.7444 46 41.9643V5.03571C46 2.25558 43.7924 0 41.0714 0ZM36.0504 16.6598C36.071 16.9536 36.071 17.2578 36.071 17.5516C36.071 26.6473 29.2942 37.1279 16.9112 37.1279C13.0915 37.1279 9.54911 35.9949 6.57143 34.0435C7.11563 34.1065 7.63929 34.1275 8.19375 34.1275C11.346 34.1275 14.2415 33.0364 16.5518 31.19C13.5946 31.127 11.1098 29.1442 10.2576 26.4165C11.2946 26.5739 12.229 26.5739 13.2969 26.2906C10.2165 25.6507 7.90625 22.881 7.90625 19.5344V19.4504C8.79955 19.9645 9.84687 20.2792 10.9455 20.3212C10.0219 19.6935 9.26467 18.8418 8.74151 17.8423C8.21835 16.8428 7.94551 15.7265 7.94732 14.5931C7.94732 13.3132 8.27589 12.1382 8.86116 11.1205C12.1777 15.296 17.1576 18.0237 22.7433 18.3174C21.7884 13.6489 25.2076 9.86161 29.3147 9.86161C31.2554 9.86161 33.0009 10.6904 34.233 12.0333C35.7527 11.7395 37.2107 11.1625 38.5045 10.3757C38.0013 11.9703 36.9438 13.3132 35.5473 14.1629C36.9027 14.0161 38.217 13.6279 39.4286 13.0929C38.5147 14.4672 37.3647 15.6842 36.0504 16.6598Z" fill="black"/>
</svg>
